<svg width="16" height="22" viewBox="0 0 16 22" fill="none" xmlns="http://www.w3.org/2000/svg">
<path d="M7.99965 5.06006C7.41738 5.06006 6.84819 5.23272 6.36406 5.55621C5.87992 5.8797 5.50259 6.33948 5.27976 6.87743C5.05694 7.41537 4.99864 8.0073 5.11223 8.57838C5.22583 9.14946 5.50621 9.67402 5.91794 10.0857C6.32966 10.4975 6.85423 10.7779 7.4253 10.8915C7.99638 11.005 8.58832 10.9467 9.12626 10.7239C9.6642 10.5011 10.124 10.1238 10.4475 9.63963C10.771 9.15549 10.9436 8.5863 10.9436 8.00404C10.9427 7.22352 10.6323 6.47522 10.0804 5.92331C9.52846 5.3714 8.78016 5.06095 7.99965 5.06006ZM7.99965 9.47603C7.70851 9.47603 7.42392 9.3897 7.18185 9.22795C6.93978 9.06621 6.75112 8.83632 6.6397 8.56735C6.52829 8.29837 6.49914 8.00241 6.55594 7.71687C6.61274 7.43133 6.75293 7.16905 6.95879 6.96318C7.16465 6.75732 7.42694 6.61713 7.71247 6.56033C7.99801 6.50354 8.29398 6.53269 8.56295 6.6441C8.83192 6.75551 9.06182 6.94418 9.22356 7.18624C9.38531 7.42831 9.47164 7.71291 9.47164 8.00404C9.47119 8.3943 9.31596 8.76844 9.04 9.0444C8.76405 9.32035 8.3899 9.47558 7.99965 9.47603Z" fill="#6F81A1"/>
<path d="M13.6568 2.34254C12.258 0.944169 10.3909 0.11348 8.41573 0.0107968C6.44055 -0.0918866 4.49735 0.540715 2.96116 1.78651C1.42498 3.0323 0.404705 4.80297 0.0972661 6.75678C-0.210173 8.71058 0.217013 10.709 1.29638 12.3664L6.85806 20.9045C6.98183 21.0945 7.15106 21.2506 7.3504 21.3586C7.54975 21.4667 7.77291 21.5233 7.99966 21.5233C8.22641 21.5233 8.44957 21.4667 8.64891 21.3586C8.84826 21.2506 9.01749 21.0945 9.14126 20.9045L14.7031 12.3664C15.7046 10.8289 16.1473 8.99395 15.9568 7.16898C15.7663 5.34402 14.9542 3.64 13.6568 2.34254ZM13.4698 11.5629L7.99968 19.9601L2.52954 11.5629C0.855148 8.99248 1.21427 5.55263 3.38343 3.38337C3.98964 2.77715 4.70932 2.29626 5.50138 1.96818C6.29343 1.64009 7.14236 1.47122 7.99968 1.47122C8.857 1.47122 9.70593 1.64009 10.498 1.96818C11.29 2.29626 12.0097 2.77715 12.6159 3.38337C14.7851 5.55263 15.1442 8.99248 13.4698 11.5629Z" fill="#6F81A1"/>
</svg>
