<svg width="14" height="19" viewBox="0 0 14 19" fill="none" xmlns="http://www.w3.org/2000/svg">
<path fill-rule="evenodd" clip-rule="evenodd" d="M8.52308 0.0511152C8.79281 0.165982 8.94867 0.449485 8.90043 0.737499L7.7512 7.60002H13.3636C13.6046 7.60002 13.8251 7.73556 13.9329 7.95012C14.0406 8.16468 14.0174 8.42145 13.8727 8.61335L6.23637 18.7467C6.06034 18.9803 5.74666 19.0637 5.47693 18.9489C5.2072 18.8341 5.05134 18.5505 5.09958 18.2626L6.2488 11.4H0.636369C0.395339 11.4 0.174978 11.2645 0.0671899 11.0499C-0.0406106 10.8353 -0.017345 10.5786 0.127276 10.3867L7.76364 0.253381C7.93967 0.0197924 8.25335 -0.0637515 8.52308 0.0511152ZM1.9091 10.1333H7C7.18706 10.1333 7.36465 10.2153 7.48556 10.3573C7.60647 10.4994 7.65846 10.6872 7.62771 10.8708L6.78401 15.9089L12.0909 8.86668H7C6.81294 8.86668 6.63536 8.78478 6.51445 8.64272C6.39354 8.50068 6.34155 8.31287 6.3723 8.12924L7.21599 3.0912L1.9091 10.1333Z" fill="#6F81A1"/>
</svg>
