<svg width="33" height="35" viewBox="0 0 33 35" fill="none" xmlns="http://www.w3.org/2000/svg">
<path fill-rule="evenodd" clip-rule="evenodd" d="M10.2549 18.8443H8.37259V20.7266H10.2549V18.8443ZM8.37259 16.9619C7.33296 16.9619 6.49023 17.8046 6.49023 18.8443V20.7266C6.49023 21.7662 7.33296 22.609 8.37259 22.609H10.2549C11.2946 22.609 12.1373 21.7662 12.1373 20.7266V18.8443C12.1373 17.8046 11.2946 16.9619 10.2549 16.9619H8.37259Z" fill="#6F81A1"/>
<path fill-rule="evenodd" clip-rule="evenodd" d="M17.7847 18.8443H15.9024V20.7266H17.7847V18.8443ZM15.9024 16.9619C14.8627 16.9619 14.02 17.8046 14.02 18.8443V20.7266C14.02 21.7662 14.8627 22.609 15.9024 22.609H17.7847C18.8243 22.609 19.6671 21.7662 19.6671 20.7266V18.8443C19.6671 17.8046 18.8243 16.9619 17.7847 16.9619H15.9024Z" fill="#6F81A1"/>
<path fill-rule="evenodd" clip-rule="evenodd" d="M25.314 18.8443H23.4317V20.7266H25.314V18.8443ZM23.4317 16.9619C22.392 16.9619 21.5493 17.8046 21.5493 18.8443V20.7266C21.5493 21.7662 22.392 22.609 23.4317 22.609H25.314C26.3536 22.609 27.1964 21.7662 27.1964 20.7266V18.8443C27.1964 17.8046 26.3536 16.9619 25.314 16.9619H23.4317Z" fill="#6F81A1"/>
<path fill-rule="evenodd" clip-rule="evenodd" d="M10.2549 26.3737H8.37259V28.256H10.2549V26.3737ZM8.37259 24.4913C7.33296 24.4913 6.49023 25.3341 6.49023 26.3737V28.256C6.49023 29.2957 7.33296 30.1384 8.37259 30.1384H10.2549C11.2946 30.1384 12.1373 29.2957 12.1373 28.256V26.3737C12.1373 25.3341 11.2946 24.4913 10.2549 24.4913H8.37259Z" fill="#6F81A1"/>
<path fill-rule="evenodd" clip-rule="evenodd" d="M17.7847 26.3737H15.9024V28.256H17.7847V26.3737ZM15.9024 24.4913C14.8627 24.4913 14.02 25.3341 14.02 26.3737V28.256C14.02 29.2957 14.8627 30.1384 15.9024 30.1384H17.7847C18.8243 30.1384 19.6671 29.2957 19.6671 28.256V26.3737C19.6671 25.3341 18.8243 24.4913 17.7847 24.4913H15.9024Z" fill="#6F81A1"/>
<path fill-rule="evenodd" clip-rule="evenodd" d="M25.314 26.3737H23.4317V28.256H25.314V26.3737ZM23.4317 24.4913C22.392 24.4913 21.5493 25.3341 21.5493 26.3737V28.256C21.5493 29.2957 22.392 30.1384 23.4317 30.1384H25.314C26.3536 30.1384 27.1964 29.2957 27.1964 28.256V26.3737C27.1964 25.3341 26.3536 24.4913 25.314 24.4913H23.4317Z" fill="#6F81A1"/>
<path fill-rule="evenodd" clip-rule="evenodd" d="M3.66679 5.66778C3.147 5.66778 2.72561 6.08915 2.72561 6.60896V32.0207C2.72561 32.5405 3.147 32.9619 3.66679 32.9619H30.0197C30.5382 32.9619 30.9609 32.5398 30.9609 32.0187V6.61103C30.9609 6.0899 30.5382 5.66778 30.0197 5.66778H27.1962V3.78543H30.0197C31.5805 3.78543 32.8433 5.05291 32.8433 6.61103V32.0187C32.8433 33.5768 31.5805 34.8443 30.0197 34.8443H3.66679C2.1074 34.8443 0.843262 33.5802 0.843262 32.0207V6.60896C0.843262 5.04952 2.1074 3.78543 3.66679 3.78543H8.37267V5.66778H3.66679ZM23.4315 5.66778H12.1374V3.78543H23.4315V5.66778Z" fill="#6F81A1"/>
<path fill-rule="evenodd" clip-rule="evenodd" d="M30.9609 14.1384H2.72559V12.256H30.9609V14.1384Z" fill="#6F81A1"/>
<path d="M8.37256 1.90309C8.37256 1.3833 8.79392 0.961914 9.31374 0.961914C9.83355 0.961914 10.2549 1.3833 10.2549 1.90309V8.49133C10.2549 9.01114 9.83355 9.4325 9.31374 9.4325C8.79392 9.4325 8.37256 9.01114 8.37256 8.49133V1.90309Z" fill="#6F81A1"/>
<path d="M23.4316 1.90309C23.4316 1.3833 23.853 0.961914 24.3728 0.961914C24.8926 0.961914 25.314 1.3833 25.314 1.90309V8.49133C25.314 9.01114 24.8926 9.4325 24.3728 9.4325C23.853 9.4325 23.4316 9.01114 23.4316 8.49133V1.90309Z" fill="#6F81A1"/>
</svg>
