<svg width="17" height="17" viewBox="0 0 17 17" fill="none" xmlns="http://www.w3.org/2000/svg">
<path fill-rule="evenodd" clip-rule="evenodd" d="M8.75453 0.753906C4.33626 0.753906 0.754517 4.33564 0.754517 8.75391C0.754517 13.1722 4.33624 16.754 8.75453 16.754C13.1728 16.754 16.7545 13.1722 16.7545 8.75391C16.7545 4.33564 13.1727 0.753906 8.75453 0.753906ZM1.90207 8.75391C1.90207 4.96941 4.97003 1.90145 8.75453 1.90145C12.539 1.90145 15.607 4.96941 15.607 8.75391C15.607 12.5384 12.539 15.6064 8.75453 15.6064C4.97003 15.6064 1.90207 12.5384 1.90207 8.75391ZM9.35839 5.13028C9.35839 4.79672 9.08798 4.52631 8.75442 4.52631C8.42086 4.52631 8.15045 4.79672 8.15045 5.13028V8.75412C8.15045 8.9143 8.21408 9.06793 8.32735 9.1812L10.7432 11.5971C10.9791 11.8329 11.3615 11.8329 11.5974 11.5971C11.8332 11.3612 11.8332 10.9788 11.5974 10.7429L9.35839 8.50395V5.13028Z" fill="white"/>
</svg>
