<svg width="18" height="18" viewBox="0 0 18 18" fill="none" xmlns="http://www.w3.org/2000/svg">
<path d="M17.0008 8.49345C17.0008 8.21752 17.2245 7.99384 17.5004 7.99384C17.7763 7.99384 18 8.21752 18 8.49345V15.4881C18 16.8677 16.8816 17.9861 15.5019 17.9861H2.49807C1.11843 17.9861 0 16.8677 0 15.4881V2.49807C0 1.11843 1.11843 0 2.49807 0H9.50655C9.78248 0 10.0062 0.223685 10.0062 0.499615C10.0062 0.775544 9.78248 0.99923 9.50655 0.99923H2.49807C1.67028 0.99923 0.99923 1.67028 0.99923 2.49807V15.4881C0.99923 16.3159 1.67028 16.9869 2.49807 16.9869H15.5019C16.3297 16.9869 17.0008 16.3159 17.0008 15.4881V8.49345ZM15.8552 0.146334L17.8537 2.14479C18.0488 2.3399 18.0488 2.65624 17.8537 2.85135L9.85983 10.8452C9.76613 10.9389 9.63905 10.9915 9.50655 10.9915H7.50809C7.23216 10.9915 7.00847 10.7678 7.00847 10.4919V8.49345C7.00847 8.36094 7.06111 8.23387 7.15481 8.14017L15.1486 0.146334C15.3438 -0.0487778 15.6601 -0.0487778 15.8552 0.146334ZM15.5019 1.20618L8.0077 8.7004V9.9923H9.2996L16.7938 2.49807L15.5019 1.20618Z" fill="#23B2AF"/>
</svg>
