<svg width="40" height="40" viewBox="0 0 40 40" fill="none" xmlns="http://www.w3.org/2000/svg">
<path d="M22.0246 32.1115C22.0606 28.4401 21.1298 25.4545 19.9458 25.4429C18.7617 25.4314 17.7727 28.3983 17.7369 32.0696C17.701 35.7411 18.6318 38.7267 19.8158 38.7383C20.9998 38.7499 21.9888 35.783 22.0246 32.1115Z" fill="#282A31"/>
<path d="M15.1576 31.2777C17.1729 28.2086 18.0042 25.1937 17.0144 24.5438C16.0246 23.8939 13.5885 25.855 11.5733 28.9241C9.558 31.9933 8.72672 35.0081 9.71648 35.6581C10.7063 36.308 13.1423 34.3469 15.1576 31.2777Z" fill="#282A31"/>
<path d="M9.82336 26.8744C13.1781 25.3822 15.5074 23.2955 15.0262 22.2136C14.545 21.1316 11.4354 21.4643 8.08065 22.9565C4.72596 24.4487 2.39658 26.5354 2.87782 27.6173C3.35905 28.6992 6.46868 28.3666 9.82336 26.8744Z" fill="#282A31"/>
<path d="M14.6235 19.1795C14.8037 18.0092 12.0079 16.6076 8.37911 16.0491C4.75022 15.4905 1.66243 15.9865 1.4823 17.1568C1.30217 18.3272 4.09791 19.7286 7.72678 20.2872C11.3556 20.8457 14.4434 20.3497 14.6235 19.1795Z" fill="#282A31"/>
<path d="M15.9264 16.3917C16.7105 15.5045 15.116 12.8142 12.3649 10.3827C9.61375 7.9513 6.74784 6.6995 5.9637 7.58674C5.17956 8.47401 6.77412 11.1643 9.52527 13.5958C12.2764 16.0272 15.1423 17.279 15.9264 16.3917Z" fill="#282A31"/>
<path d="M18.5211 14.7623C19.6605 14.4399 19.7737 11.3145 18.774 7.7817C17.7743 4.24883 16.0402 1.64624 14.9009 1.96865C13.7615 2.29106 13.6483 5.41637 14.648 8.94927C15.6477 12.4821 17.3818 15.0847 18.5211 14.7623Z" fill="#282A31"/>
<path d="M25.5667 9.05921C26.6359 5.54673 26.5844 2.41979 25.4516 2.07498C24.3188 1.73017 22.5338 4.29805 21.4646 7.81052C20.3954 11.323 20.447 14.4499 21.5798 14.7947C22.7126 15.1395 24.4976 12.5717 25.5667 9.05921Z" fill="#282A31"/>
<path d="M30.6011 13.8053C33.3993 11.4281 35.0462 8.76947 34.2794 7.8671C33.5128 6.9647 30.623 8.16028 27.8249 10.5374C25.0267 12.9146 23.3799 15.5732 24.1466 16.4756C24.9132 17.378 27.8031 16.1825 30.6011 13.8053Z" fill="#282A31"/>
<path d="M32.2658 20.5215C35.905 20.0347 38.7278 18.6886 38.5707 17.5149C38.4138 16.3413 35.3363 15.7846 31.6971 16.2714C28.058 16.7583 25.2351 18.1043 25.3922 19.278C25.5492 20.4516 28.6266 21.0084 32.2658 20.5215Z" fill="#282A31"/>
<path d="M36.9603 27.9528C37.4628 26.8806 35.175 24.7484 31.8504 23.1903C28.5258 21.6322 25.4233 21.2384 24.9209 22.3105C24.4184 23.3828 26.7061 25.515 30.0308 27.0731C33.3553 28.6311 36.4578 29.025 36.9603 27.9528Z" fill="#282A31"/>
<path d="M29.9671 35.864C30.9695 35.2338 30.1978 32.203 28.2435 29.0948C26.2892 25.9866 23.8922 23.9778 22.8898 24.6081C21.8874 25.2383 22.6591 28.269 24.6134 31.3773C26.5678 34.4855 28.9647 36.4943 29.9671 35.864Z" fill="#282A31"/>
</svg>
