<svg width="16" height="16" viewBox="0 0 16 16" fill="none" xmlns="http://www.w3.org/2000/svg">
<path d="M7.66878 0.220963C7.79132 -0.0736542 8.20867 -0.0736542 8.33121 0.220963L10.2879 4.92549C10.3396 5.04969 10.4564 5.13456 10.5905 5.14531L15.6695 5.55249C15.9875 5.57799 16.1164 5.97491 15.8742 6.18249L12.0045 9.49724C11.9024 9.58474 11.8578 9.72206 11.889 9.8529L13.0712 14.809C13.1452 15.1195 12.8076 15.3648 12.5353 15.1985L8.18698 12.5425C8.07219 12.4724 7.9278 12.4724 7.81301 12.5425L3.46472 15.1985C3.19242 15.3648 2.85478 15.1195 2.9288 14.809L4.11104 9.8529C4.14226 9.72206 4.09763 9.58474 3.99548 9.49724L0.125861 6.18249C-0.116469 5.97491 0.012501 5.57799 0.330562 5.55249L5.40951 5.14531C5.54358 5.13456 5.6604 5.04969 5.71205 4.92549L7.66878 0.220963Z" fill="#FC9752"/>
</svg>
